<svg xmlns="http://www.w3.org/2000/svg" version="1.1" xmlns:xlink="http://www.w3.org/1999/xlink" xmlns:svgjs="http://svgjs.dev/svgjs" width="1000" height="212" viewBox="0 0 1000 212"><g transform="matrix(1,0,0,1,-0.6060606060606801,0.43769780388369384)"><svg viewBox="0 0 396 84" data-background-color="#8b3c7f" preserveAspectRatio="xMidYMid meet" height="212" width="1000" xmlns="http://www.w3.org/2000/svg" xmlns:xlink="http://www.w3.org/1999/xlink"><g id="tight-bounds" transform="matrix(1,0,0,1,0.24000000000003752,-0.17342743172750374)"><svg viewBox="0 0 395.5199999999999 84.34685486345502" height="84.34685486345502" width="395.5199999999999"><g><svg viewBox="0 0 395.52000000000004 84.34685486345504" height="84.34685486345502" width="395.5199999999999"><g><svg viewBox="0 0 395.52000000000004 84.34685486345504" height="84.34685486345504" width="395.52000000000004"><g id="textblocktransform"><svg viewBox="0 0 395.52000000000004 84.34685486345504" height="84.34685486345504" width="395.52000000000004" id="textblock"><g><svg viewBox="0 0 395.52000000000004 84.34685486345504" height="84.34685486345504" width="395.52000000000004"><g transform="matrix(1,0,0,1,0,0)"><svg width="395.52000000000004" viewBox="0 -34.5 162.94000244140625 34.75" height="84.34685486345504" data-palette-color="#ffffff"><path d="M19.15 0.25L12.3 0.25 2.8-28.65Q0.65-29.45 0-30.35L0-30.35 0.5-34.5 12.2-34.5 12.7-30.35Q12-29.4 10.15-28.75L10.15-28.75 14.4-13.95Q15.45-10.5 15.7-7.6L15.7-7.6 15.75-6.75 16.45-6.75Q16.5-9.8 17.7-13.85L17.7-13.85 22.15-28.7Q20.25-29.35 19.5-30.35L19.5-30.35 20-34.5 31.4-34.5 31.9-30.35Q31-29.25 28.55-28.45L28.55-28.45 19.15 0.25ZM33.6-34.5L45.3-34.5 45.8-30.35Q45-29.4 43.05-28.65L43.05-28.65 43.05-5.8Q45.05-5 45.8-4.15L45.8-4.15 45.3 0 33.6 0 33.1-4.15Q33.75-5 35.85-5.8L35.85-5.8 35.85-28.65Q33.8-29.4 33.1-30.35L33.1-30.35 33.6-34.5ZM57.05-18.85L57.05-18.85 57.05-5.7Q58.9-5 59.8-3.85L59.8-3.85 59.3 0 49.5 0 49-3.85Q49.9-5 51.75-5.7L51.75-5.7 51.75-28.8Q49.7-29.55 48.9-30.65L48.9-30.65 49.4-34.5 59.7-34.5 69.65-15.1Q70.75-13 71.8-9.5L71.8-9.5 72.15-8.3 72.7-8.5Q72-12.85 72-15.8L72-15.8 72-28.75Q70.2-29.45 69.25-30.65L69.25-30.65 69.75-34.5 79.55-34.5 80.05-30.65Q79.09-29.45 77.3-28.75L77.3-28.75 77.3 0 69.45 0 59.4-19.55Q58.3-21.65 57.25-25.2L57.25-25.2 56.9-26.35 56.35-26.15Q57.05-21.8 57.05-18.85ZM112.94-4.15L112.44 0 104.14 0 93.04-18 101.39-29.1Q99.99-29.75 99.44-30.45L99.44-30.45 99.94-34.5 111.34-34.5 111.84-30.45Q111.14-29.65 109.24-28.85L109.24-28.85 100.59-18.2 108.49-6.3Q111.74-5.6 112.94-4.15L112.94-4.15ZM83.29-34.5L94.99-34.5 95.49-30.35Q94.69-29.4 92.74-28.65L92.74-28.65 92.74-5.8Q94.74-5 95.49-4.15L95.49-4.15 94.99 0 83.29 0 82.79-4.15Q83.44-5 85.54-5.8L85.54-5.8 85.54-28.65Q83.49-29.4 82.79-30.35L82.79-30.35 83.29-34.5ZM137.54-8.7L137.54 0 114.64 0 114.14-4.15Q114.79-5 116.89-5.8L116.89-5.8 116.89-28.65Q114.84-29.4 114.14-30.35L114.14-30.35 114.64-34.5 126.34-34.5 126.84-30.35Q126.04-29.4 124.09-28.65L124.09-28.65 124.09-5.45 131.99-5.45Q132.64-8.05 133.84-9.15L133.84-9.15 137.54-8.7ZM162.94-8.7L162.94 0 139.74 0 139.24-4.15Q139.89-5 141.99-5.8L141.99-5.8 141.99-28.65Q139.94-29.4 139.24-30.35L139.24-30.35 139.74-34.5 162.54-34.5 162.54-25.8 158.84-25.35Q157.69-26.35 156.99-29.05L156.99-29.05 149.19-29.05 149.19-20.45 156.14-20.45Q156.74-21.95 157.39-22.55L157.39-22.55 160.54-22.2 160.54-13.3 157.39-12.9Q156.74-13.4 156.14-15L156.14-15 149.19-15 149.19-5.45 157.39-5.45Q158.04-8.05 159.24-9.15L159.24-9.15 162.94-8.7Z" opacity="1" transform="matrix(1,0,0,1,0,0)" fill="#ffffff" class="wordmark-text-0" data-fill-palette-color="primary" id="text-0"></path></svg></g></svg></g></svg></g></svg></g><g></g></svg></g><defs></defs></svg><rect width="395.5199999999999" height="84.34685486345502" fill="none" stroke="none" visibility="hidden"></rect></g></svg></g></svg>